<svg width="153" height="71" viewBox="0 0 153 71" fill="none" xmlns="http://www.w3.org/2000/svg">
<g filter="url(#filter0_d_102_1150)">
<rect x="16.7607" y="6.40332" width="119.597" height="37.1564" fill="url(#paint0_linear_102_1150)"/>
</g>
<path d="M37.8331 29.6285C37.1828 29.6285 36.5976 29.5171 36.0774 29.2941C35.5572 29.0619 35.1485 28.7368 34.8513 28.3188C34.554 27.9008 34.4054 27.4131 34.4054 26.8557H36.1053C36.1425 27.2738 36.305 27.6175 36.593 27.8868C36.8902 28.1562 37.3036 28.2909 37.8331 28.2909C38.3811 28.2909 38.8084 28.1609 39.115 27.9008C39.4215 27.6314 39.5748 27.2877 39.5748 26.8697C39.5748 26.5446 39.4772 26.2798 39.2822 26.0755C39.0964 25.8711 38.8595 25.7132 38.5716 25.6017C38.2929 25.4902 37.9027 25.3695 37.4011 25.2394C36.7695 25.0722 36.2539 24.905 35.8545 24.7378C35.4644 24.5613 35.1299 24.292 34.8513 23.9297C34.5726 23.5674 34.4333 23.0844 34.4333 22.4806C34.4333 21.9232 34.5726 21.4355 34.8513 21.0175C35.1299 20.5995 35.5201 20.2791 36.0217 20.0561C36.5233 19.8332 37.1039 19.7217 37.7634 19.7217C38.7016 19.7217 39.468 19.9586 40.0625 20.4323C40.6663 20.8968 41.0007 21.5377 41.0657 22.3552H39.31C39.2822 22.0022 39.115 21.7003 38.8084 21.4495C38.5019 21.1987 38.0978 21.0733 37.5962 21.0733C37.141 21.0733 36.7695 21.1894 36.4815 21.4216C36.1935 21.6538 36.0496 21.9883 36.0496 22.4248C36.0496 22.7221 36.1378 22.9683 36.3143 23.1633C36.5001 23.3491 36.7323 23.4977 37.011 23.6092C37.2897 23.7207 37.6705 23.8414 38.1536 23.9715C38.7945 24.148 39.3147 24.3245 39.7141 24.501C40.1228 24.6774 40.4665 24.9515 40.7452 25.323C41.0332 25.6853 41.1772 26.173 41.1772 26.7861C41.1772 27.2784 41.0425 27.7429 40.7731 28.1794C40.513 28.616 40.1275 28.969 39.6166 29.2384C39.115 29.4985 38.5205 29.6285 37.8331 29.6285ZM44.9046 23.1494V27.3992C44.9046 27.6871 44.9696 27.8961 45.0997 28.0262C45.239 28.1469 45.4713 28.2073 45.7964 28.2073H46.7717V29.531H45.5177C44.8024 29.531 44.2544 29.3638 43.8735 29.0294C43.4927 28.695 43.3023 28.1516 43.3023 27.3992V23.1494H42.3966V21.8536H43.3023V19.9446H44.9046V21.8536H46.7717V23.1494H44.9046ZM47.7063 25.6574C47.7063 24.8865 47.8642 24.2037 48.18 23.6092C48.5051 23.0147 48.9417 22.5549 49.4898 22.2298C50.0471 21.8954 50.6602 21.7282 51.329 21.7282C51.9328 21.7282 52.4576 21.8489 52.9035 22.0904C53.3587 22.3227 53.721 22.6153 53.9904 22.9683V21.8536H55.5927V29.531H53.9904V28.3884C53.721 28.7507 53.354 29.0526 52.8896 29.2941C52.4251 29.5357 51.8957 29.6564 51.3012 29.6564C50.6416 29.6564 50.0378 29.4892 49.4898 29.1548C48.9417 28.8111 48.5051 28.3374 48.18 27.7336C47.8642 27.1205 47.7063 26.4284 47.7063 25.6574ZM53.9904 25.6853C53.9904 25.1558 53.8789 24.696 53.6559 24.3059C53.4423 23.9157 53.159 23.6185 52.806 23.4141C52.453 23.2098 52.0722 23.1076 51.6634 23.1076C51.2547 23.1076 50.8739 23.2098 50.5209 23.4141C50.1679 23.6092 49.8799 23.9018 49.657 24.2919C49.4433 24.6728 49.3365 25.128 49.3365 25.6574C49.3365 26.1869 49.4433 26.6514 49.657 27.0508C49.8799 27.4502 50.1679 27.7568 50.5209 27.9704C50.8831 28.1748 51.264 28.277 51.6634 28.277C52.0722 28.277 52.453 28.1748 52.806 27.9704C53.159 27.7661 53.4423 27.4688 53.6559 27.0787C53.8789 26.6793 53.9904 26.2148 53.9904 25.6853ZM59.2675 22.9683C59.4997 22.5781 59.8063 22.2762 60.1871 22.0626C60.5773 21.8396 61.0371 21.7282 61.5666 21.7282V23.3723H61.1625C60.5401 23.3723 60.0664 23.5302 59.7413 23.8461C59.4254 24.1619 59.2675 24.71 59.2675 25.4902V29.531H57.6791V21.8536H59.2675V22.9683ZM64.8798 23.1494V27.3992C64.8798 27.6871 64.9449 27.8961 65.0749 28.0262C65.2142 28.1469 65.4465 28.2073 65.7716 28.2073H66.7469V29.531H65.4929C64.7777 29.531 64.2296 29.3638 63.8487 29.0294C63.4679 28.695 63.2775 28.1516 63.2775 27.3992V23.1494H62.3718V21.8536H63.2775V19.9446H64.8798V21.8536H66.7469V23.1494H64.8798ZM74.6172 29.6564C74.0134 29.6564 73.47 29.5496 72.9869 29.3359C72.5132 29.113 72.137 28.8157 71.8583 28.4442C71.5796 28.0633 71.431 27.6407 71.4124 27.1762H73.0566C73.0845 27.5013 73.2377 27.7754 73.5164 27.9983C73.8044 28.212 74.162 28.3188 74.5893 28.3188C75.0352 28.3188 75.3789 28.2352 75.6204 28.068C75.8712 27.8915 75.9966 27.6685 75.9966 27.3992C75.9966 27.1112 75.8573 26.8975 75.5786 26.7582C75.3092 26.6189 74.8773 26.4656 74.2828 26.2984C73.7068 26.1405 73.2377 25.9872 72.8755 25.8386C72.5132 25.69 72.1974 25.4624 71.928 25.1558C71.6679 24.8493 71.5378 24.4452 71.5378 23.9436C71.5378 23.5349 71.6586 23.1633 71.9001 22.8289C72.1416 22.4852 72.4853 22.2158 72.9312 22.0208C73.3864 21.8257 73.9066 21.7282 74.4918 21.7282C75.3649 21.7282 76.0663 21.9511 76.5958 22.397C77.1345 22.8336 77.4225 23.4327 77.4596 24.1944H75.8712C75.8433 23.8507 75.704 23.5767 75.4532 23.3723C75.2024 23.168 74.8633 23.0658 74.436 23.0658C74.018 23.0658 73.6976 23.1447 73.4746 23.3027C73.2517 23.4606 73.1402 23.6696 73.1402 23.9297C73.1402 24.134 73.2145 24.3059 73.3631 24.4452C73.5118 24.5846 73.6929 24.696 73.9066 24.7796C74.1202 24.8539 74.436 24.9515 74.854 25.0722C75.4114 25.2209 75.8666 25.3741 76.2195 25.532C76.5818 25.6807 76.893 25.9036 77.1531 26.2009C77.4132 26.4981 77.5479 26.8929 77.5572 27.3852C77.5572 27.8218 77.4364 28.212 77.1949 28.5556C76.9534 28.8993 76.6097 29.1687 76.1638 29.3638C75.7272 29.5589 75.2117 29.6564 74.6172 29.6564ZM82.6037 29.6564C81.8791 29.6564 81.2242 29.4938 80.639 29.1687C80.0538 28.8343 79.594 28.3699 79.2596 27.7754C78.9252 27.1716 78.758 26.4749 78.758 25.6853C78.758 24.905 78.9298 24.213 79.2735 23.6092C79.6172 23.0054 80.0863 22.541 80.6808 22.2158C81.2753 21.8907 81.9395 21.7282 82.6733 21.7282C83.4072 21.7282 84.0713 21.8907 84.6658 22.2158C85.2603 22.541 85.7294 23.0054 86.0731 23.6092C86.4168 24.213 86.5887 24.905 86.5887 25.6853C86.5887 26.4656 86.4122 27.1576 86.0592 27.7614C85.7062 28.3652 85.2232 28.8343 84.6101 29.1687C84.0063 29.4938 83.3375 29.6564 82.6037 29.6564ZM82.6037 28.277C83.0124 28.277 83.3932 28.1794 83.7462 27.9844C84.1085 27.7893 84.4011 27.4967 84.624 27.1065C84.847 26.7164 84.9585 26.2427 84.9585 25.6853C84.9585 25.128 84.8516 24.6589 84.638 24.278C84.4243 23.8879 84.141 23.5953 83.788 23.4002C83.435 23.2051 83.0542 23.1076 82.6455 23.1076C82.2367 23.1076 81.8559 23.2051 81.5029 23.4002C81.1592 23.5953 80.8852 23.8879 80.6808 24.278C80.4765 24.6589 80.3743 25.128 80.3743 25.6853C80.3743 26.512 80.5833 27.153 81.0013 27.6082C81.4286 28.054 81.9627 28.277 82.6037 28.277ZM89.7474 19.2201V29.531H88.1589V19.2201H89.7474ZM94.8007 28.1098L96.9744 21.8536H98.6604L95.7343 29.531H93.8393L90.9272 21.8536H92.6271L94.8007 28.1098ZM100.669 20.8364C100.381 20.8364 100.14 20.7389 99.9446 20.5438C99.7496 20.3487 99.652 20.1072 99.652 19.8192C99.652 19.5313 99.7496 19.2898 99.9446 19.0947C100.14 18.8996 100.381 18.8021 100.669 18.8021C100.948 18.8021 101.185 18.8996 101.38 19.0947C101.575 19.2898 101.672 19.5313 101.672 19.8192C101.672 20.1072 101.575 20.3487 101.38 20.5438C101.185 20.7389 100.948 20.8364 100.669 20.8364ZM101.449 21.8536V29.531H99.861V21.8536H101.449ZM107.409 21.7282C108.012 21.7282 108.551 21.8536 109.025 22.1044C109.508 22.3552 109.884 22.7267 110.153 23.2191C110.423 23.7114 110.558 24.3059 110.558 25.0026V29.531H108.983V25.2394C108.983 24.552 108.811 24.0272 108.467 23.6649C108.124 23.2934 107.655 23.1076 107.06 23.1076C106.466 23.1076 105.992 23.2934 105.639 23.6649C105.295 24.0272 105.123 24.552 105.123 25.2394V29.531H103.535V21.8536H105.123V22.7314C105.383 22.4156 105.713 22.1694 106.113 21.9929C106.521 21.8164 106.953 21.7282 107.409 21.7282ZM115.677 21.7282C116.271 21.7282 116.796 21.8489 117.251 22.0904C117.716 22.3227 118.078 22.6153 118.338 22.9683V21.8536H119.941V29.6564C119.941 30.3624 119.792 30.9894 119.495 31.5375C119.198 32.0948 118.766 32.5314 118.199 32.8472C117.642 33.163 116.973 33.321 116.192 33.321C115.152 33.321 114.288 33.0748 113.601 32.5825C112.913 32.0994 112.523 31.4399 112.43 30.6039H114.005C114.126 31.0033 114.381 31.3238 114.771 31.5653C115.171 31.8161 115.644 31.9415 116.192 31.9415C116.833 31.9415 117.349 31.7465 117.739 31.3563C118.139 30.9662 118.338 30.3995 118.338 29.6564V28.3745C118.069 28.7368 117.702 29.0433 117.238 29.2941C116.782 29.5357 116.262 29.6564 115.677 29.6564C115.008 29.6564 114.395 29.4892 113.838 29.1548C113.29 28.8111 112.853 28.3374 112.528 27.7336C112.212 27.1205 112.054 26.4284 112.054 25.6574C112.054 24.8865 112.212 24.2037 112.528 23.6092C112.853 23.0147 113.29 22.5549 113.838 22.2298C114.395 21.8954 115.008 21.7282 115.677 21.7282ZM118.338 25.6853C118.338 25.1558 118.227 24.696 118.004 24.3059C117.79 23.9157 117.507 23.6185 117.154 23.4141C116.801 23.2098 116.42 23.1076 116.011 23.1076C115.603 23.1076 115.222 23.2098 114.869 23.4141C114.516 23.6092 114.228 23.9018 114.005 24.2919C113.791 24.6728 113.684 25.128 113.684 25.6574C113.684 26.1869 113.791 26.6514 114.005 27.0508C114.228 27.4502 114.516 27.7568 114.869 27.9704C115.231 28.1748 115.612 28.277 116.011 28.277C116.42 28.277 116.801 28.1748 117.154 27.9704C117.507 27.7661 117.79 27.4688 118.004 27.0787C118.227 26.6793 118.338 26.2148 118.338 25.6853Z" fill="white"/>
<defs>
<filter id="filter0_d_102_1150" x="0.504738" y="0.59763" width="152.109" height="69.6684" filterUnits="userSpaceOnUse" color-interpolation-filters="sRGB">
<feFlood flood-opacity="0" result="BackgroundImageFix"/>
<feColorMatrix in="SourceAlpha" type="matrix" values="0 0 0 0 0 0 0 0 0 0 0 0 0 0 0 0 0 0 127 0" result="hardAlpha"/>
<feMorphology radius="6.96683" operator="erode" in="SourceAlpha" result="effect1_dropShadow_102_1150"/>
<feOffset dy="10.4502"/>
<feGaussianBlur stdDeviation="11.6114"/>
<feColorMatrix type="matrix" values="0 0 0 0 0.983333 0 0 0 0 0.882083 0 0 0 0 0.558861 0 0 0 1 0"/>
<feBlend mode="normal" in2="BackgroundImageFix" result="effect1_dropShadow_102_1150"/>
<feBlend mode="normal" in="SourceGraphic" in2="effect1_dropShadow_102_1150" result="shape"/>
</filter>
<linearGradient id="paint0_linear_102_1150" x1="16.7607" y1="6.40332" x2="136.676" y2="42.5034" gradientUnits="userSpaceOnUse">
<stop stop-color="#FCC822"/>
<stop offset="1" stop-color="#FFCD2E"/>
</linearGradient>
</defs>
</svg>
