<svg width="262" height="15" viewBox="0 0 262 15" fill="none" xmlns="http://www.w3.org/2000/svg">
<path d="M4.03051 8.51376L5.99674 1.60136H6.94923L6.39815 4.28876L4.28224 11.5073H3.33655L4.03051 8.51376ZM1.99625 1.60136L3.56107 8.37769L4.03051 11.5073H3.09162L0.689972 1.60136H1.99625ZM9.49376 8.37089L11.0246 1.60136H12.3376L9.94279 11.5073H9.0039L9.49376 8.37089ZM7.09211 1.60136L9.0039 8.51376L9.69786 11.5073H8.75217L6.71111 4.28876L6.15322 1.60136H7.09211ZM16.4402 11.6434C15.9276 11.6434 15.4627 11.5572 15.0455 11.3849C14.6327 11.208 14.2766 10.9608 13.9773 10.6433C13.6825 10.3258 13.4557 9.94931 13.2969 9.51389C13.1382 9.07846 13.0588 8.60221 13.0588 8.08514V7.79939C13.0588 7.20068 13.1473 6.66774 13.3242 6.20056C13.501 5.72885 13.7414 5.32971 14.0453 5.00314C14.3492 4.67657 14.6939 4.42937 15.0795 4.26155C15.465 4.09373 15.8641 4.00982 16.2769 4.00982C16.803 4.00982 17.2566 4.10053 17.6376 4.28196C18.0231 4.46339 18.3384 4.71739 18.5833 5.04396C18.8282 5.36599 19.0096 5.74699 19.1276 6.18695C19.2455 6.62238 19.3045 7.09863 19.3045 7.6157V8.18039H13.8072V7.15306H18.0458V7.05781C18.0277 6.73124 17.9596 6.41374 17.8417 6.10531C17.7283 5.79688 17.5469 5.54288 17.2974 5.34331C17.048 5.14374 16.7078 5.04396 16.2769 5.04396C15.9911 5.04396 15.7281 5.10519 15.4877 5.22765C15.2473 5.34558 15.0409 5.52247 14.8686 5.75833C14.6962 5.99419 14.5624 6.2822 14.4671 6.62238C14.3719 6.96256 14.3243 7.35489 14.3243 7.79939V8.08514C14.3243 8.43439 14.3719 8.76323 14.4671 9.07166C14.5669 9.37555 14.7098 9.64315 14.8958 9.87447C15.0863 10.1058 15.3153 10.2872 15.5829 10.4188C15.8551 10.5503 16.1635 10.6161 16.5082 10.6161C16.9527 10.6161 17.3292 10.5253 17.6376 10.3439C17.946 10.1625 18.2159 9.91983 18.4472 9.61594L19.2092 10.2215C19.0505 10.4618 18.8486 10.6909 18.6037 10.9086C18.3588 11.1263 18.0572 11.3032 17.6988 11.4393C17.345 11.5754 16.9255 11.6434 16.4402 11.6434ZM25.4889 1.05708V11.5073H24.2302V1.05708H25.4889ZM25.1895 7.54766L24.6657 7.52725C24.6702 7.02379 24.745 6.55888 24.8902 6.13252C25.0353 5.70163 25.2394 5.32744 25.5025 5.00994C25.7656 4.69244 26.0785 4.44751 26.4414 4.27516C26.8088 4.09826 27.2147 4.00982 27.6592 4.00982C28.0221 4.00982 28.3486 4.05971 28.6389 4.1595C28.9292 4.25475 29.1764 4.40896 29.3805 4.62214C29.5892 4.83532 29.7479 5.11199 29.8568 5.45217C29.9656 5.78781 30.0201 6.19829 30.0201 6.68361V11.5073H28.7546V6.67C28.7546 6.28447 28.6979 5.97604 28.5845 5.74472C28.4711 5.50887 28.3056 5.33878 28.0878 5.23446C27.8701 5.1256 27.6025 5.07117 27.285 5.07117C26.9721 5.07117 26.6863 5.13694 26.4278 5.26847C26.1738 5.40001 25.9538 5.58144 25.7678 5.81276C25.5864 6.04408 25.4435 6.30942 25.3392 6.60877C25.2394 6.90359 25.1895 7.21656 25.1895 7.54766ZM34.9594 11.6434C34.4469 11.6434 33.982 11.5572 33.5647 11.3849C33.1519 11.208 32.7959 10.9608 32.4965 10.6433C32.2017 10.3258 31.9749 9.94931 31.8162 9.51389C31.6574 9.07846 31.5781 8.60221 31.5781 8.08514V7.79939C31.5781 7.20068 31.6665 6.66774 31.8434 6.20056C32.0203 5.72885 32.2607 5.32971 32.5646 5.00314C32.8685 4.67657 33.2132 4.42937 33.5987 4.26155C33.9842 4.09373 34.3834 4.00982 34.7961 4.00982C35.3223 4.00982 35.7758 4.10053 36.1568 4.28196C36.5424 4.46339 36.8576 4.71739 37.1025 5.04396C37.3475 5.36599 37.5289 5.74699 37.6468 6.18695C37.7648 6.62238 37.8237 7.09863 37.8237 7.6157V8.18039H32.3265V7.15306H36.5651V7.05781C36.5469 6.73124 36.4789 6.41374 36.361 6.10531C36.2476 5.79688 36.0661 5.54288 35.8167 5.34331C35.5672 5.14374 35.227 5.04396 34.7961 5.04396C34.5104 5.04396 34.2473 5.10519 34.0069 5.22765C33.7665 5.34558 33.5602 5.52247 33.3878 5.75833C33.2154 5.99419 33.0816 6.2822 32.9864 6.62238C32.8911 6.96256 32.8435 7.35489 32.8435 7.79939V8.08514C32.8435 8.43439 32.8911 8.76323 32.9864 9.07166C33.0862 9.37555 33.2291 9.64315 33.415 9.87447C33.6055 10.1058 33.8346 10.2872 34.1022 10.4188C34.3743 10.5503 34.6827 10.6161 35.0275 10.6161C35.472 10.6161 35.8484 10.5253 36.1568 10.3439C36.4653 10.1625 36.7351 9.91983 36.9665 9.61594L37.7285 10.2215C37.5697 10.4618 37.3679 10.6909 37.123 10.9086C36.878 11.1263 36.5764 11.3032 36.2181 11.4393C35.8643 11.5754 35.4447 11.6434 34.9594 11.6434ZM40.6608 1.05708V11.5073H39.3953V1.05708H40.6608ZM43.9401 5.56103V14.3376H42.6746V4.14589H43.8312L43.9401 5.56103ZM48.8999 7.76537V7.90825C48.8999 8.44346 48.8364 8.94012 48.7094 9.39823C48.5824 9.8518 48.3964 10.2464 48.1515 10.582C47.9111 10.9177 47.614 11.1785 47.2602 11.3644C46.9064 11.5504 46.5005 11.6434 46.0424 11.6434C45.5752 11.6434 45.1625 11.5663 44.8042 11.4121C44.4458 11.2579 44.1419 11.0333 43.8925 10.7385C43.643 10.4437 43.4434 10.0899 43.2938 9.67717C43.1486 9.26442 43.0488 8.79951 42.9944 8.28244V7.52045C43.0488 6.97616 43.1509 6.48858 43.3006 6.05769C43.4502 5.62679 43.6475 5.2594 43.8925 4.95551C44.1419 4.64708 44.4436 4.4135 44.7973 4.25475C45.1511 4.09146 45.5593 4.00982 46.022 4.00982C46.4846 4.00982 46.8951 4.10053 47.2534 4.28196C47.6117 4.45885 47.9134 4.71285 48.1583 5.04396C48.4032 5.37506 48.5869 5.77194 48.7094 6.23458C48.8364 6.69268 48.8999 7.20295 48.8999 7.76537ZM47.6344 7.90825V7.76537C47.6344 7.39798 47.5959 7.05327 47.5188 6.73124C47.4417 6.40467 47.3215 6.11892 47.1582 5.87399C46.9994 5.62453 46.7953 5.42949 46.5459 5.28888C46.2964 5.14374 45.9993 5.07117 45.6546 5.07117C45.3371 5.07117 45.0604 5.1256 44.8246 5.23446C44.5932 5.34331 44.3959 5.49072 44.2327 5.67669C44.0694 5.85811 43.9356 6.06676 43.8312 6.30261C43.7315 6.53393 43.6566 6.77433 43.6067 7.02379V8.78591C43.6974 9.10341 43.8244 9.40276 43.9877 9.68397C44.151 9.96065 44.3687 10.1852 44.6409 10.3575C44.913 10.5253 45.2555 10.6093 45.6682 10.6093C46.0084 10.6093 46.3009 10.539 46.5459 10.3983C46.7953 10.2532 46.9994 10.0559 47.1582 9.80644C47.3215 9.55697 47.4417 9.27123 47.5188 8.94919C47.5959 8.62262 47.6344 8.27564 47.6344 7.90825ZM56.03 10.7453L58.0779 4.14589H59.425L56.4722 12.6435C56.4042 12.8249 56.3135 13.02 56.2001 13.2286C56.0912 13.4418 55.9506 13.6436 55.7783 13.8341C55.6059 14.0246 55.3973 14.1788 55.1523 14.2968C54.912 14.4192 54.6239 14.4805 54.2883 14.4805C54.1885 14.4805 54.0615 14.4669 53.9073 14.4397C53.7531 14.4124 53.6442 14.3898 53.5807 14.3716L53.5739 13.3511C53.6102 13.3556 53.6669 13.3602 53.744 13.3647C53.8257 13.3738 53.8823 13.3783 53.9141 13.3783C54.1998 13.3783 54.4425 13.3397 54.6421 13.2626C54.8416 13.1901 55.0095 13.0653 55.1455 12.8884C55.2861 12.7161 55.4063 12.478 55.5061 12.1741L56.03 10.7453ZM54.5264 4.14589L56.4382 9.86087L56.7648 11.1876L55.8599 11.6502L53.1521 4.14589H54.5264ZM60.1189 7.90825V7.75177C60.1189 7.22109 60.196 6.72897 60.3503 6.2754C60.5045 5.81729 60.7267 5.42042 61.017 5.08478C61.3073 4.7446 61.6588 4.48153 62.0715 4.29557C62.4843 4.10507 62.9469 4.00982 63.4595 4.00982C63.9765 4.00982 64.4414 4.10507 64.8542 4.29557C65.2715 4.48153 65.6253 4.7446 65.9155 5.08478C66.2104 5.42042 66.4349 5.81729 66.5891 6.2754C66.7433 6.72897 66.8204 7.22109 66.8204 7.75177V7.90825C66.8204 8.43893 66.7433 8.93105 66.5891 9.38462C66.4349 9.83819 66.2104 10.2351 65.9155 10.5752C65.6253 10.9109 65.2737 11.174 64.861 11.3644C64.4528 11.5504 63.9901 11.6434 63.4731 11.6434C62.956 11.6434 62.4911 11.5504 62.0784 11.3644C61.6656 11.174 61.3118 10.9109 61.017 10.5752C60.7267 10.2351 60.5045 9.83819 60.3503 9.38462C60.196 8.93105 60.1189 8.43893 60.1189 7.90825ZM61.3776 7.75177V7.90825C61.3776 8.27564 61.4207 8.62262 61.5069 8.94919C61.593 9.27123 61.7223 9.55697 61.8947 9.80644C62.0715 10.0559 62.2915 10.2532 62.5546 10.3983C62.8177 10.539 63.1238 10.6093 63.4731 10.6093C63.8178 10.6093 64.1194 10.539 64.3779 10.3983C64.641 10.2532 64.8587 10.0559 65.0311 9.80644C65.2034 9.55697 65.3327 9.27123 65.4189 8.94919C65.5096 8.62262 65.555 8.27564 65.555 7.90825V7.75177C65.555 7.38891 65.5096 7.04647 65.4189 6.72443C65.3327 6.39786 65.2012 6.10985 65.0243 5.86038C64.8519 5.60638 64.6342 5.40681 64.3711 5.26167C64.1126 5.11653 63.8087 5.04396 63.4595 5.04396C63.1148 5.04396 62.8109 5.11653 62.5478 5.26167C62.2893 5.40681 62.0715 5.60638 61.8947 5.86038C61.7223 6.10985 61.593 6.39786 61.5069 6.72443C61.4207 7.04647 61.3776 7.38891 61.3776 7.75177ZM72.9028 9.80644V4.14589H74.1682V11.5073H72.964L72.9028 9.80644ZM73.1409 8.25523L73.6648 8.24162C73.6648 8.73148 73.6126 9.18505 73.5083 9.60233C73.4085 10.0151 73.2452 10.3734 73.0185 10.6773C72.7917 10.9812 72.4946 11.2193 72.1272 11.3917C71.7598 11.5595 71.313 11.6434 70.7869 11.6434C70.4286 11.6434 70.0997 11.5912 69.8004 11.4869C69.5056 11.3826 69.2516 11.2216 69.0384 11.0039C68.8252 10.7861 68.6596 10.5027 68.5417 10.1534C68.4283 9.80417 68.3716 9.38462 68.3716 8.89476V4.14589H69.6303V8.90837C69.6303 9.23948 69.6666 9.51389 69.7391 9.7316C69.8162 9.94478 69.9183 10.1149 70.0453 10.2419C70.1768 10.3643 70.322 10.4505 70.4807 10.5004C70.644 10.5503 70.8118 10.5752 70.9842 10.5752C71.5194 10.5752 71.9435 10.4732 72.2565 10.2691C72.5694 10.0604 72.7939 9.78149 72.93 9.43224C73.0706 9.07846 73.1409 8.68612 73.1409 8.25523ZM80.8017 5.56103V14.3376H79.5362V4.14589H80.6928L80.8017 5.56103ZM85.7615 7.76537V7.90825C85.7615 8.44346 85.698 8.94012 85.571 9.39823C85.444 9.8518 85.258 10.2464 85.0131 10.582C84.7727 10.9177 84.4756 11.1785 84.1218 11.3644C83.768 11.5504 83.3621 11.6434 82.904 11.6434C82.4368 11.6434 82.0241 11.5663 81.6658 11.4121C81.3074 11.2579 81.0035 11.0333 80.7541 10.7385C80.5046 10.4437 80.305 10.0899 80.1554 9.67717C80.0102 9.26442 79.9104 8.79951 79.856 8.28244V7.52045C79.9104 6.97616 80.0125 6.48858 80.1622 6.05769C80.3118 5.62679 80.5092 5.2594 80.7541 4.95551C81.0035 4.64708 81.3052 4.4135 81.6589 4.25475C82.0127 4.09146 82.4209 4.00982 82.8836 4.00982C83.3462 4.00982 83.7567 4.10053 84.115 4.28196C84.4733 4.45885 84.775 4.71285 85.0199 5.04396C85.2648 5.37506 85.4485 5.77194 85.571 6.23458C85.698 6.69268 85.7615 7.20295 85.7615 7.76537ZM84.496 7.90825V7.76537C84.496 7.39798 84.4575 7.05327 84.3804 6.73124C84.3033 6.40467 84.1831 6.11892 84.0198 5.87399C83.861 5.62453 83.6569 5.42949 83.4075 5.28888C83.158 5.14374 82.8609 5.07117 82.5162 5.07117C82.1987 5.07117 81.922 5.1256 81.6862 5.23446C81.4548 5.34331 81.2575 5.49072 81.0943 5.67669C80.931 5.85811 80.7972 6.06676 80.6928 6.30261C80.5931 6.53393 80.5182 6.77433 80.4683 7.02379V8.78591C80.559 9.10341 80.686 9.40276 80.8493 9.68397C81.0126 9.96065 81.2303 10.1852 81.5025 10.3575C81.7746 10.5253 82.1171 10.6093 82.5298 10.6093C82.87 10.6093 83.1625 10.539 83.4075 10.3983C83.6569 10.2532 83.861 10.0559 84.0198 9.80644C84.1831 9.55697 84.3033 9.27123 84.3804 8.94919C84.4575 8.62262 84.496 8.27564 84.496 7.90825ZM88.6258 5.30249V11.5073H87.3671V4.14589H88.5918L88.6258 5.30249ZM90.9254 4.10507L90.9186 5.27528C90.8143 5.2526 90.7145 5.23899 90.6192 5.23446C90.5285 5.22539 90.4242 5.22085 90.3063 5.22085C90.016 5.22085 89.7597 5.26621 89.5375 5.35692C89.3152 5.44763 89.127 5.57463 88.9728 5.73792C88.8185 5.9012 88.6961 6.09624 88.6054 6.32302C88.5192 6.54527 88.4625 6.7902 88.4353 7.05781L88.0815 7.26191C88.0815 6.81741 88.1246 6.40013 88.2108 6.01006C88.3015 5.61999 88.4398 5.27528 88.6258 4.97592C88.8117 4.67203 89.0476 4.43617 89.3333 4.26835C89.6236 4.096 89.9683 4.00982 90.3675 4.00982C90.4582 4.00982 90.5625 4.02116 90.6804 4.04384C90.7984 4.06198 90.88 4.08239 90.9254 4.10507ZM95.0075 11.6434C94.495 11.6434 94.0301 11.5572 93.6128 11.3849C93.2 11.208 92.844 10.9608 92.5446 10.6433C92.2498 10.3258 92.023 9.94931 91.8643 9.51389C91.7055 9.07846 91.6261 8.60221 91.6261 8.08514V7.79939C91.6261 7.20068 91.7146 6.66774 91.8915 6.20056C92.0684 5.72885 92.3088 5.32971 92.6127 5.00314C92.9166 4.67657 93.2613 4.42937 93.6468 4.26155C94.0323 4.09373 94.4315 4.00982 94.8442 4.00982C95.3704 4.00982 95.8239 4.10053 96.2049 4.28196C96.5905 4.46339 96.9057 4.71739 97.1506 5.04396C97.3956 5.36599 97.577 5.74699 97.6949 6.18695C97.8128 6.62238 97.8718 7.09863 97.8718 7.6157V8.18039H92.3745V7.15306H96.6131V7.05781C96.595 6.73124 96.527 6.41374 96.409 6.10531C96.2956 5.79688 96.1142 5.54288 95.8648 5.34331C95.6153 5.14374 95.2751 5.04396 94.8442 5.04396C94.5585 5.04396 94.2954 5.10519 94.055 5.22765C93.8146 5.34558 93.6082 5.52247 93.4359 5.75833C93.2635 5.99419 93.1297 6.2822 93.0345 6.62238C92.9392 6.96256 92.8916 7.35489 92.8916 7.79939V8.08514C92.8916 8.43439 92.9392 8.76323 93.0345 9.07166C93.1343 9.37555 93.2771 9.64315 93.4631 9.87447C93.6536 10.1058 93.8827 10.2872 94.1503 10.4188C94.4224 10.5503 94.7308 10.6161 95.0755 10.6161C95.52 10.6161 95.8965 10.5253 96.2049 10.3439C96.5134 10.1625 96.7832 9.91983 97.0146 9.61594L97.7765 10.2215C97.6178 10.4618 97.416 10.6909 97.171 10.9086C96.9261 11.1263 96.6245 11.3032 96.2662 11.4393C95.9124 11.5754 95.4928 11.6434 95.0075 11.6434ZM100.6 5.56103V14.3376H99.3346V4.14589H100.491L100.6 5.56103ZM105.56 7.76537V7.90825C105.56 8.44346 105.496 8.94012 105.369 9.39823C105.242 9.8518 105.056 10.2464 104.811 10.582C104.571 10.9177 104.274 11.1785 103.92 11.3644C103.566 11.5504 103.16 11.6434 102.702 11.6434C102.235 11.6434 101.822 11.5663 101.464 11.4121C101.106 11.2579 100.802 11.0333 100.552 10.7385C100.303 10.4437 100.103 10.0899 99.9537 9.67717C99.8085 9.26442 99.7088 8.79951 99.6543 8.28244V7.52045C99.7088 6.97616 99.8108 6.48858 99.9605 6.05769C100.11 5.62679 100.307 5.2594 100.552 4.95551C100.802 4.64708 101.103 4.4135 101.457 4.25475C101.811 4.09146 102.219 4.00982 102.682 4.00982C103.145 4.00982 103.555 4.10053 103.913 4.28196C104.272 4.45885 104.573 4.71285 104.818 5.04396C105.063 5.37506 105.247 5.77194 105.369 6.23458C105.496 6.69268 105.56 7.20295 105.56 7.76537ZM104.294 7.90825V7.76537C104.294 7.39798 104.256 7.05327 104.179 6.73124C104.102 6.40467 103.981 6.11892 103.818 5.87399C103.659 5.62453 103.455 5.42949 103.206 5.28888C102.956 5.14374 102.659 5.07117 102.315 5.07117C101.997 5.07117 101.72 5.1256 101.484 5.23446C101.253 5.34331 101.056 5.49072 100.893 5.67669C100.729 5.85811 100.595 6.06676 100.491 6.30261C100.391 6.53393 100.317 6.77433 100.267 7.02379V8.78591C100.357 9.10341 100.484 9.40276 100.648 9.68397C100.811 9.96065 101.029 10.1852 101.301 10.3575C101.573 10.5253 101.915 10.6093 102.328 10.6093C102.668 10.6093 102.961 10.539 103.206 10.3983C103.455 10.2532 103.659 10.0559 103.818 9.80644C103.981 9.55697 104.102 9.27123 104.179 8.94919C104.256 8.62262 104.294 8.27564 104.294 7.90825ZM111.506 10.2487V6.45909C111.506 6.16881 111.447 5.91708 111.329 5.7039C111.216 5.48619 111.043 5.31837 110.812 5.20044C110.581 5.08251 110.295 5.02355 109.955 5.02355C109.637 5.02355 109.358 5.07797 109.118 5.18683C108.882 5.29569 108.696 5.43856 108.56 5.61545C108.429 5.79235 108.363 5.98285 108.363 6.18695H107.104C107.104 5.92388 107.172 5.66308 107.308 5.40455C107.444 5.14601 107.639 4.91242 107.893 4.70378C108.152 4.4906 108.46 4.32278 108.819 4.20032C109.182 4.07332 109.585 4.00982 110.03 4.00982C110.565 4.00982 111.037 4.10053 111.445 4.28196C111.858 4.46339 112.18 4.7378 112.411 5.10519C112.647 5.46804 112.765 5.92388 112.765 6.4727V9.90169C112.765 10.1466 112.785 10.4074 112.826 10.6841C112.871 10.9608 112.937 11.1989 113.023 11.3985V11.5073H111.71C111.647 11.3622 111.597 11.1694 111.561 10.929C111.524 10.6841 111.506 10.4573 111.506 10.2487ZM111.724 7.0442L111.737 7.92866H110.465C110.107 7.92866 109.787 7.95814 109.506 8.01711C109.225 8.07153 108.989 8.15544 108.798 8.26884C108.608 8.38223 108.463 8.5251 108.363 8.69746C108.263 8.86528 108.213 9.06258 108.213 9.28937C108.213 9.52069 108.265 9.7316 108.37 9.9221C108.474 10.1126 108.63 10.2645 108.839 10.3779C109.052 10.4868 109.313 10.5412 109.622 10.5412C110.007 10.5412 110.347 10.4596 110.642 10.2963C110.937 10.133 111.17 9.93344 111.343 9.69758C111.52 9.46173 111.615 9.23267 111.629 9.01042L112.166 9.61594C112.134 9.80644 112.048 10.0173 111.908 10.2487C111.767 10.48 111.579 10.7022 111.343 10.9154C111.111 11.1241 110.835 11.2987 110.513 11.4393C110.195 11.5754 109.837 11.6434 109.438 11.6434C108.939 11.6434 108.501 11.5459 108.125 11.3508C107.753 11.1558 107.463 10.895 107.254 10.5684C107.05 10.2373 106.948 9.86767 106.948 9.45946C106.948 9.06485 107.025 8.71787 107.179 8.41852C107.333 8.11462 107.556 7.86289 107.846 7.66332C108.136 7.45922 108.485 7.305 108.894 7.20068C109.302 7.09636 109.758 7.0442 110.261 7.0442H111.724ZM116.003 5.30249V11.5073H114.745V4.14589H115.969L116.003 5.30249ZM118.303 4.10507L118.296 5.27528C118.192 5.2526 118.092 5.23899 117.997 5.23446C117.906 5.22539 117.802 5.22085 117.684 5.22085C117.393 5.22085 117.137 5.26621 116.915 5.35692C116.693 5.44763 116.504 5.57463 116.35 5.73792C116.196 5.9012 116.074 6.09624 115.983 6.32302C115.897 6.54527 115.84 6.7902 115.813 7.05781L115.459 7.26191C115.459 6.81741 115.502 6.40013 115.588 6.01006C115.679 5.61999 115.817 5.27528 116.003 4.97592C116.189 4.67203 116.425 4.43617 116.711 4.26835C117.001 4.096 117.346 4.00982 117.745 4.00982C117.836 4.00982 117.94 4.02116 118.058 4.04384C118.176 4.06198 118.257 4.08239 118.303 4.10507ZM122.385 11.6434C121.872 11.6434 121.408 11.5572 120.99 11.3849C120.577 11.208 120.221 10.9608 119.922 10.6433C119.627 10.3258 119.4 9.94931 119.242 9.51389C119.083 9.07846 119.004 8.60221 119.004 8.08514V7.79939C119.004 7.20068 119.092 6.66774 119.269 6.20056C119.446 5.72885 119.686 5.32971 119.99 5.00314C120.294 4.67657 120.639 4.42937 121.024 4.26155C121.41 4.09373 121.809 4.00982 122.222 4.00982C122.748 4.00982 123.201 4.10053 123.582 4.28196C123.968 4.46339 124.283 4.71739 124.528 5.04396C124.773 5.36599 124.954 5.74699 125.072 6.18695C125.19 6.62238 125.249 7.09863 125.249 7.6157V8.18039H119.752V7.15306H123.991V7.05781C123.972 6.73124 123.904 6.41374 123.786 6.10531C123.673 5.79688 123.492 5.54288 123.242 5.34331C122.993 5.14374 122.653 5.04396 122.222 5.04396C121.936 5.04396 121.673 5.10519 121.432 5.22765C121.192 5.34558 120.986 5.52247 120.813 5.75833C120.641 5.99419 120.507 6.2822 120.412 6.62238C120.317 6.96256 120.269 7.35489 120.269 7.79939V8.08514C120.269 8.43439 120.317 8.76323 120.412 9.07166C120.512 9.37555 120.655 9.64315 120.841 9.87447C121.031 10.1058 121.26 10.2872 121.528 10.4188C121.8 10.5503 122.108 10.6161 122.453 10.6161C122.897 10.6161 123.274 10.5253 123.582 10.3439C123.891 10.1625 124.161 9.91983 124.392 9.61594L125.154 10.2215C124.995 10.4618 124.793 10.6909 124.548 10.9086C124.304 11.1263 124.002 11.3032 123.644 11.4393C123.29 11.5754 122.87 11.6434 122.385 11.6434ZM132.053 11.5073H130.794V3.37029C130.794 2.83961 130.889 2.39284 131.08 2.02999C131.275 1.6626 131.554 1.38592 131.917 1.19995C132.28 1.00946 132.71 0.914206 133.209 0.914206C133.355 0.914206 133.5 0.923277 133.645 0.94142C133.795 0.959563 133.94 0.986777 134.08 1.02306L134.012 2.0504C133.917 2.02772 133.808 2.01184 133.686 2.00277C133.568 1.9937 133.45 1.98917 133.332 1.98917C133.064 1.98917 132.833 2.04359 132.638 2.15245C132.447 2.25677 132.302 2.41099 132.202 2.61509C132.103 2.8192 132.053 3.07093 132.053 3.37029V11.5073ZM133.618 4.14589V5.11199H129.631V4.14589H133.618ZM134.686 7.90825V7.75177C134.686 7.22109 134.763 6.72897 134.917 6.2754C135.071 5.81729 135.294 5.42042 135.584 5.08478C135.874 4.7446 136.226 4.48153 136.638 4.29557C137.051 4.10507 137.514 4.00982 138.026 4.00982C138.543 4.00982 139.008 4.10507 139.421 4.29557C139.838 4.48153 140.192 4.7446 140.482 5.08478C140.777 5.42042 141.002 5.81729 141.156 6.2754C141.31 6.72897 141.387 7.22109 141.387 7.75177V7.90825C141.387 8.43893 141.31 8.93105 141.156 9.38462C141.002 9.83819 140.777 10.2351 140.482 10.5752C140.192 10.9109 139.841 11.174 139.428 11.3644C139.02 11.5504 138.557 11.6434 138.04 11.6434C137.523 11.6434 137.058 11.5504 136.645 11.3644C136.232 11.174 135.879 10.9109 135.584 10.5752C135.294 10.2351 135.071 9.83819 134.917 9.38462C134.763 8.93105 134.686 8.43893 134.686 7.90825ZM135.944 7.75177V7.90825C135.944 8.27564 135.988 8.62262 136.074 8.94919C136.16 9.27123 136.289 9.55697 136.462 9.80644C136.638 10.0559 136.858 10.2532 137.121 10.3983C137.385 10.539 137.691 10.6093 138.04 10.6093C138.385 10.6093 138.686 10.539 138.945 10.3983C139.208 10.2532 139.426 10.0559 139.598 9.80644C139.77 9.55697 139.9 9.27123 139.986 8.94919C140.076 8.62262 140.122 8.27564 140.122 7.90825V7.75177C140.122 7.38891 140.076 7.04647 139.986 6.72443C139.9 6.39786 139.768 6.10985 139.591 5.86038C139.419 5.60638 139.201 5.40681 138.938 5.26167C138.679 5.11653 138.376 5.04396 138.026 5.04396C137.682 5.04396 137.378 5.11653 137.115 5.26167C136.856 5.40681 136.638 5.60638 136.462 5.86038C136.289 6.10985 136.16 6.39786 136.074 6.72443C135.988 7.04647 135.944 7.38891 135.944 7.75177ZM144.224 5.30249V11.5073H142.966V4.14589H144.19L144.224 5.30249ZM146.524 4.10507L146.517 5.27528C146.413 5.2526 146.313 5.23899 146.218 5.23446C146.127 5.22539 146.023 5.22085 145.905 5.22085C145.615 5.22085 145.358 5.26621 145.136 5.35692C144.914 5.44763 144.726 5.57463 144.571 5.73792C144.417 5.9012 144.295 6.09624 144.204 6.32302C144.118 6.54527 144.061 6.7902 144.034 7.05781L143.68 7.26191C143.68 6.81741 143.723 6.40013 143.809 6.01006C143.9 5.61999 144.038 5.27528 144.224 4.97592C144.41 4.67203 144.646 4.43617 144.932 4.26835C145.222 4.096 145.567 4.00982 145.966 4.00982C146.057 4.00982 146.161 4.02116 146.279 4.04384C146.397 4.06198 146.479 4.08239 146.524 4.10507ZM154.198 11.6434C153.686 11.6434 153.221 11.5572 152.804 11.3849C152.391 11.208 152.035 10.9608 151.735 10.6433C151.441 10.3258 151.214 9.94931 151.055 9.51389C150.896 9.07846 150.817 8.60221 150.817 8.08514V7.79939C150.817 7.20068 150.905 6.66774 151.082 6.20056C151.259 5.72885 151.5 5.32971 151.803 5.00314C152.107 4.67657 152.452 4.42937 152.838 4.26155C153.223 4.09373 153.622 4.00982 154.035 4.00982C154.561 4.00982 155.015 4.10053 155.396 4.28196C155.781 4.46339 156.097 4.71739 156.341 5.04396C156.586 5.36599 156.768 5.74699 156.886 6.18695C157.004 6.62238 157.063 7.09863 157.063 7.6157V8.18039H151.565V7.15306H155.804V7.05781C155.786 6.73124 155.718 6.41374 155.6 6.10531C155.486 5.79688 155.305 5.54288 155.056 5.34331C154.806 5.14374 154.466 5.04396 154.035 5.04396C153.749 5.04396 153.486 5.10519 153.246 5.22765C153.005 5.34558 152.799 5.52247 152.627 5.75833C152.454 5.99419 152.321 6.2822 152.225 6.62238C152.13 6.96256 152.082 7.35489 152.082 7.79939V8.08514C152.082 8.43439 152.13 8.76323 152.225 9.07166C152.325 9.37555 152.468 9.64315 152.654 9.87447C152.844 10.1058 153.073 10.2872 153.341 10.4188C153.613 10.5503 153.922 10.6161 154.266 10.6161C154.711 10.6161 155.087 10.5253 155.396 10.3439C155.704 10.1625 155.974 9.91983 156.205 9.61594L156.967 10.2215C156.809 10.4618 156.607 10.6909 156.362 10.9086C156.117 11.1263 155.815 11.3032 155.457 11.4393C155.103 11.5754 154.684 11.6434 154.198 11.6434ZM159.383 4.14589L160.995 6.82649L162.628 4.14589H164.104L161.696 7.77898L164.179 11.5073H162.723L161.022 8.74509L159.321 11.5073H157.859L160.335 7.77898L157.933 4.14589H159.383ZM169.785 10.2487V6.45909C169.785 6.16881 169.726 5.91708 169.608 5.7039C169.495 5.48619 169.323 5.31837 169.091 5.20044C168.86 5.08251 168.574 5.02355 168.234 5.02355C167.917 5.02355 167.638 5.07797 167.397 5.18683C167.161 5.29569 166.975 5.43856 166.839 5.61545C166.708 5.79235 166.642 5.98285 166.642 6.18695H165.383C165.383 5.92388 165.451 5.66308 165.587 5.40455C165.724 5.14601 165.919 4.91242 166.173 4.70378C166.431 4.4906 166.74 4.32278 167.098 4.20032C167.461 4.07332 167.864 4.00982 168.309 4.00982C168.844 4.00982 169.316 4.10053 169.724 4.28196C170.137 4.46339 170.459 4.7378 170.69 5.10519C170.926 5.46804 171.044 5.92388 171.044 6.4727V9.90169C171.044 10.1466 171.064 10.4074 171.105 10.6841C171.151 10.9608 171.216 11.1989 171.302 11.3985V11.5073H169.989C169.926 11.3622 169.876 11.1694 169.84 10.929C169.803 10.6841 169.785 10.4573 169.785 10.2487ZM170.003 7.0442L170.017 7.92866H168.744C168.386 7.92866 168.066 7.95814 167.785 8.01711C167.504 8.07153 167.268 8.15544 167.077 8.26884C166.887 8.38223 166.742 8.5251 166.642 8.69746C166.542 8.86528 166.492 9.06258 166.492 9.28937C166.492 9.52069 166.545 9.7316 166.649 9.9221C166.753 10.1126 166.91 10.2645 167.118 10.3779C167.331 10.4868 167.592 10.5412 167.901 10.5412C168.286 10.5412 168.626 10.4596 168.921 10.2963C169.216 10.133 169.45 9.93344 169.622 9.69758C169.799 9.46173 169.894 9.23267 169.908 9.01042L170.445 9.61594C170.413 9.80644 170.327 10.0173 170.187 10.2487C170.046 10.48 169.858 10.7022 169.622 10.9154C169.391 11.1241 169.114 11.2987 168.792 11.4393C168.474 11.5754 168.116 11.6434 167.717 11.6434C167.218 11.6434 166.78 11.5459 166.404 11.3508C166.032 11.1558 165.742 10.895 165.533 10.5684C165.329 10.2373 165.227 9.86767 165.227 9.45946C165.227 9.06485 165.304 8.71787 165.458 8.41852C165.612 8.11462 165.835 7.86289 166.125 7.66332C166.415 7.45922 166.764 7.305 167.173 7.20068C167.581 7.09636 168.037 7.0442 168.54 7.0442H170.003ZM174.276 5.60865V11.5073H173.01V4.14589H174.208L174.276 5.60865ZM174.017 7.54766L173.432 7.52725C173.436 7.02379 173.502 6.55888 173.629 6.13252C173.756 5.70163 173.944 5.32744 174.194 5.00994C174.443 4.69244 174.754 4.44751 175.126 4.27516C175.498 4.09826 175.929 4.00982 176.419 4.00982C176.763 4.00982 177.081 4.05971 177.371 4.1595C177.661 4.25475 177.913 4.40669 178.126 4.61533C178.34 4.82398 178.505 5.09158 178.623 5.41815C178.741 5.74472 178.8 6.13933 178.8 6.60197V11.5073H177.541V6.6632C177.541 6.27767 177.476 5.96924 177.344 5.73792C177.217 5.5066 177.036 5.33878 176.8 5.23446C176.564 5.1256 176.287 5.07117 175.97 5.07117C175.598 5.07117 175.287 5.13694 175.038 5.26847C174.788 5.40001 174.589 5.58144 174.439 5.81276C174.289 6.04408 174.18 6.30942 174.112 6.60877C174.049 6.90359 174.017 7.21656 174.017 7.54766ZM178.786 6.8537L177.943 7.11223C177.947 6.70856 178.013 6.32076 178.14 5.94883C178.272 5.5769 178.46 5.2458 178.705 4.95551C178.954 4.66523 179.26 4.43617 179.623 4.26835C179.986 4.096 180.401 4.00982 180.868 4.00982C181.263 4.00982 181.612 4.06198 181.916 4.1663C182.224 4.27062 182.483 4.43164 182.692 4.64935C182.905 4.86253 183.066 5.13694 183.175 5.47258C183.283 5.80822 183.338 6.20736 183.338 6.67V11.5073H182.072V6.6564C182.072 6.24365 182.007 5.92388 181.875 5.6971C181.748 5.46578 181.567 5.30476 181.331 5.21405C181.1 5.1188 180.823 5.07117 180.501 5.07117C180.224 5.07117 179.979 5.1188 179.766 5.21405C179.553 5.3093 179.374 5.44083 179.229 5.60865C179.083 5.77194 178.972 5.96017 178.895 6.17335C178.823 6.38652 178.786 6.61331 178.786 6.8537ZM189.529 9.55471C189.529 9.37328 189.488 9.20546 189.407 9.05124C189.33 8.8925 189.169 8.74962 188.924 8.62262C188.683 8.49109 188.32 8.37769 187.835 8.28244C187.427 8.19627 187.057 8.09421 186.726 7.97628C186.4 7.85836 186.121 7.71548 185.889 7.54766C185.662 7.37984 185.488 7.18254 185.365 6.95575C185.243 6.72897 185.182 6.46363 185.182 6.15974C185.182 5.86945 185.245 5.59504 185.372 5.33651C185.504 5.07797 185.687 4.84892 185.923 4.64935C186.164 4.44978 186.452 4.2933 186.787 4.17991C187.123 4.06651 187.497 4.00982 187.91 4.00982C188.5 4.00982 189.003 4.11414 189.42 4.32278C189.838 4.53142 190.157 4.81037 190.38 5.15962C190.602 5.50433 190.713 5.8876 190.713 6.30942H189.454C189.454 6.10531 189.393 5.90801 189.271 5.71751C189.153 5.52247 188.978 5.36146 188.747 5.23446C188.52 5.10746 188.241 5.04396 187.91 5.04396C187.561 5.04396 187.277 5.09839 187.059 5.20724C186.846 5.31156 186.69 5.44537 186.59 5.60865C186.495 5.77194 186.447 5.94429 186.447 6.12572C186.447 6.26179 186.47 6.38426 186.515 6.49311C186.565 6.59743 186.651 6.69495 186.774 6.78566C186.896 6.87184 187.069 6.95349 187.291 7.03059C187.513 7.1077 187.797 7.18481 188.141 7.26191C188.744 7.39798 189.241 7.56127 189.631 7.75177C190.021 7.94227 190.312 8.17586 190.502 8.45253C190.693 8.72921 190.788 9.06485 190.788 9.45946C190.788 9.78149 190.72 10.0763 190.584 10.3439C190.452 10.6115 190.259 10.8428 190.005 11.0379C189.756 11.2284 189.457 11.3781 189.107 11.4869C188.763 11.5912 188.375 11.6434 187.944 11.6434C187.295 11.6434 186.746 11.5277 186.297 11.2964C185.848 11.0651 185.508 10.7657 185.277 10.3983C185.046 10.031 184.93 9.64315 184.93 9.23494H186.195C186.214 9.57965 186.313 9.85406 186.495 10.0582C186.676 10.2577 186.898 10.4006 187.162 10.4868C187.425 10.5684 187.685 10.6093 187.944 10.6093C188.289 10.6093 188.577 10.5639 188.808 10.4732C189.044 10.3825 189.223 10.2577 189.345 10.099C189.468 9.94024 189.529 9.75881 189.529 9.55471ZM200.238 10.2487V6.45909C200.238 6.16881 200.179 5.91708 200.061 5.7039C199.948 5.48619 199.775 5.31837 199.544 5.20044C199.313 5.08251 199.027 5.02355 198.687 5.02355C198.369 5.02355 198.09 5.07797 197.85 5.18683C197.614 5.29569 197.428 5.43856 197.292 5.61545C197.16 5.79235 197.095 5.98285 197.095 6.18695H195.836C195.836 5.92388 195.904 5.66308 196.04 5.40455C196.176 5.14601 196.371 4.91242 196.625 4.70378C196.884 4.4906 197.192 4.32278 197.551 4.20032C197.913 4.07332 198.317 4.00982 198.762 4.00982C199.297 4.00982 199.768 4.10053 200.177 4.28196C200.589 4.46339 200.911 4.7378 201.143 5.10519C201.379 5.46804 201.497 5.92388 201.497 6.4727V9.90169C201.497 10.1466 201.517 10.4074 201.558 10.6841C201.603 10.9608 201.669 11.1989 201.755 11.3985V11.5073H200.442C200.379 11.3622 200.329 11.1694 200.292 10.929C200.256 10.6841 200.238 10.4573 200.238 10.2487ZM200.456 7.0442L200.469 7.92866H199.197C198.839 7.92866 198.519 7.95814 198.238 8.01711C197.956 8.07153 197.721 8.15544 197.53 8.26884C197.34 8.38223 197.194 8.5251 197.095 8.69746C196.995 8.86528 196.945 9.06258 196.945 9.28937C196.945 9.52069 196.997 9.7316 197.101 9.9221C197.206 10.1126 197.362 10.2645 197.571 10.3779C197.784 10.4868 198.045 10.5412 198.353 10.5412C198.739 10.5412 199.079 10.4596 199.374 10.2963C199.669 10.133 199.902 9.93344 200.075 9.69758C200.252 9.46173 200.347 9.23267 200.36 9.01042L200.898 9.61594C200.866 9.80644 200.78 10.0173 200.639 10.2487C200.499 10.48 200.31 10.7022 200.075 10.9154C199.843 11.1241 199.567 11.2987 199.245 11.4393C198.927 11.5754 198.569 11.6434 198.17 11.6434C197.671 11.6434 197.233 11.5459 196.857 11.3508C196.485 11.1558 196.194 10.895 195.986 10.5684C195.782 10.2373 195.68 9.86767 195.68 9.45946C195.68 9.06485 195.757 8.71787 195.911 8.41852C196.065 8.11462 196.287 7.86289 196.578 7.66332C196.868 7.45922 197.217 7.305 197.625 7.20068C198.034 7.09636 198.489 7.0442 198.993 7.0442H200.456ZM204.735 5.71751V11.5073H203.476V4.14589H204.667L204.735 5.71751ZM204.436 7.54766L203.912 7.52725C203.916 7.02379 203.991 6.55888 204.136 6.13252C204.281 5.70163 204.486 5.32744 204.749 5.00994C205.012 4.69244 205.325 4.44751 205.688 4.27516C206.055 4.09826 206.461 4.00982 206.905 4.00982C207.268 4.00982 207.595 4.05971 207.885 4.1595C208.175 4.25475 208.423 4.40896 208.627 4.62214C208.835 4.83532 208.994 5.11199 209.103 5.45217C209.212 5.78781 209.266 6.19829 209.266 6.68361V11.5073H208.001V6.67C208.001 6.28447 207.944 5.97604 207.831 5.74472C207.717 5.50887 207.552 5.33878 207.334 5.23446C207.116 5.1256 206.849 5.07117 206.531 5.07117C206.218 5.07117 205.932 5.13694 205.674 5.26847C205.42 5.40001 205.2 5.58144 205.014 5.81276C204.833 6.04408 204.69 6.30942 204.585 6.60877C204.486 6.90359 204.436 7.21656 204.436 7.54766ZM215.818 10.0786V1.05708H217.084V11.5073H215.927L215.818 10.0786ZM210.865 7.90825V7.76537C210.865 7.20295 210.933 6.69268 211.069 6.23458C211.21 5.77194 211.407 5.37506 211.661 5.04396C211.92 4.71285 212.226 4.45885 212.58 4.28196C212.938 4.10053 213.337 4.00982 213.777 4.00982C214.24 4.00982 214.643 4.09146 214.988 4.25475C215.337 4.4135 215.632 4.64708 215.872 4.95551C216.117 5.2594 216.31 5.62679 216.451 6.05769C216.591 6.48858 216.689 6.97616 216.743 7.52045V8.14637C216.693 8.68612 216.596 9.17144 216.451 9.60233C216.31 10.0332 216.117 10.4006 215.872 10.7045C215.632 11.0084 215.337 11.242 214.988 11.4053C214.639 11.564 214.231 11.6434 213.763 11.6434C213.332 11.6434 212.938 11.5504 212.58 11.3644C212.226 11.1785 211.92 10.9177 211.661 10.582C211.407 10.2464 211.21 9.8518 211.069 9.39823C210.933 8.94012 210.865 8.44346 210.865 7.90825ZM212.131 7.76537V7.90825C212.131 8.27564 212.167 8.62035 212.239 8.94239C212.316 9.26442 212.434 9.5479 212.593 9.79283C212.752 10.0378 212.954 10.2305 213.199 10.3711C213.444 10.5072 213.736 10.5752 214.076 10.5752C214.494 10.5752 214.836 10.4868 215.104 10.3099C215.376 10.133 215.594 9.89942 215.757 9.60914C215.92 9.31885 216.047 9.00362 216.138 8.66344V7.02379C216.083 6.77433 216.004 6.53393 215.9 6.30261C215.8 6.06676 215.668 5.85811 215.505 5.67669C215.346 5.49072 215.149 5.34331 214.913 5.23446C214.682 5.1256 214.407 5.07117 214.09 5.07117C213.745 5.07117 213.448 5.14374 213.199 5.28888C212.954 5.42949 212.752 5.62453 212.593 5.87399C212.434 6.11892 212.316 6.40467 212.239 6.73124C212.167 7.05327 212.131 7.39798 212.131 7.76537ZM227.132 14.3376V5.56103L227.241 4.14589H228.398V14.3376H227.132ZM222.186 7.90825V7.76537C222.186 7.20295 222.252 6.69268 222.383 6.23458C222.515 5.77194 222.708 5.37506 222.962 5.04396C223.216 4.71285 223.522 4.45885 223.88 4.28196C224.243 4.10053 224.656 4.00982 225.118 4.00982C225.581 4.00982 225.987 4.09146 226.336 4.25475C226.69 4.4135 226.989 4.64708 227.234 4.95551C227.484 5.2594 227.681 5.62679 227.826 6.05769C227.971 6.48858 228.071 6.97616 228.126 7.52045V8.14637C228.076 8.68612 227.978 9.17144 227.833 9.60233C227.688 10.0332 227.491 10.4006 227.241 10.7045C226.996 11.0084 226.695 11.242 226.336 11.4053C225.983 11.564 225.572 11.6434 225.105 11.6434C224.651 11.6434 224.243 11.5504 223.88 11.3644C223.522 11.1785 223.216 10.9177 222.962 10.582C222.712 10.2464 222.52 9.8518 222.383 9.39823C222.252 8.94012 222.186 8.44346 222.186 7.90825ZM223.452 7.76537V7.90825C223.452 8.27564 223.49 8.62262 223.567 8.94919C223.644 9.27123 223.762 9.55697 223.921 9.80644C224.084 10.0559 224.288 10.2532 224.533 10.3983C224.783 10.539 225.078 10.6093 225.418 10.6093C225.835 10.6093 226.182 10.5185 226.459 10.3371C226.74 10.1557 226.965 9.91756 227.132 9.62274C227.3 9.32339 227.429 9.00362 227.52 8.66344V7.02379C227.47 6.77433 227.391 6.53167 227.282 6.29581C227.178 6.05995 227.042 5.84904 226.874 5.66308C226.706 5.47258 226.502 5.3229 226.261 5.21405C226.026 5.10065 225.749 5.04396 225.431 5.04396C225.087 5.04396 224.79 5.11653 224.54 5.26167C224.291 5.40681 224.084 5.60638 223.921 5.86038C223.762 6.10985 223.644 6.39786 223.567 6.72443C223.49 7.051 223.452 7.39798 223.452 7.76537ZM234.922 9.80644V4.14589H236.188V11.5073H234.984L234.922 9.80644ZM235.161 8.25523L235.684 8.24162C235.684 8.73148 235.632 9.18505 235.528 9.60233C235.428 10.0151 235.265 10.3734 235.038 10.6773C234.811 10.9812 234.514 11.2193 234.147 11.3917C233.779 11.5595 233.333 11.6434 232.806 11.6434C232.448 11.6434 232.119 11.5912 231.82 11.4869C231.525 11.3826 231.271 11.2216 231.058 11.0039C230.845 10.7861 230.679 10.5027 230.561 10.1534C230.448 9.80417 230.391 9.38462 230.391 8.89476V4.14589H231.65V8.90837C231.65 9.23948 231.686 9.51389 231.759 9.7316C231.836 9.94478 231.938 10.1149 232.065 10.2419C232.196 10.3643 232.342 10.4505 232.5 10.5004C232.664 10.5503 232.831 10.5752 233.004 10.5752C233.539 10.5752 233.963 10.4732 234.276 10.2691C234.589 10.0604 234.814 9.78149 234.95 9.43224C235.09 9.07846 235.161 8.68612 235.161 8.25523ZM239.474 4.14589V11.5073H238.209V4.14589H239.474ZM238.113 2.19327C238.113 1.98917 238.174 1.81681 238.297 1.6762C238.424 1.5356 238.61 1.46529 238.855 1.46529C239.095 1.46529 239.279 1.5356 239.406 1.6762C239.537 1.81681 239.603 1.98917 239.603 2.19327C239.603 2.38831 239.537 2.55613 239.406 2.69673C239.279 2.83281 239.095 2.90084 238.855 2.90084C238.61 2.90084 238.424 2.83281 238.297 2.69673C238.174 2.55613 238.113 2.38831 238.113 2.19327ZM246.978 10.4732V11.5073H241.624V10.4732H246.978ZM246.781 5.03715L241.91 11.5073H241.141V10.582L245.978 4.14589H246.781V5.03715ZM246.223 4.14589V5.18683H241.195V4.14589H246.223ZM251.353 11.6434C250.84 11.6434 250.376 11.5572 249.958 11.3849C249.545 11.208 249.189 10.9608 248.89 10.6433C248.595 10.3258 248.368 9.94931 248.21 9.51389C248.051 9.07846 247.972 8.60221 247.972 8.08514V7.79939C247.972 7.20068 248.06 6.66774 248.237 6.20056C248.414 5.72885 248.654 5.32971 248.958 5.00314C249.262 4.67657 249.607 4.42937 249.992 4.26155C250.378 4.09373 250.777 4.00982 251.19 4.00982C251.716 4.00982 252.169 4.10053 252.55 4.28196C252.936 4.46339 253.251 4.71739 253.496 5.04396C253.741 5.36599 253.922 5.74699 254.04 6.18695C254.158 6.62238 254.217 7.09863 254.217 7.6157V8.18039H248.72V7.15306H252.959V7.05781C252.94 6.73124 252.872 6.41374 252.754 6.10531C252.641 5.79688 252.46 5.54288 252.21 5.34331C251.961 5.14374 251.621 5.04396 251.19 5.04396C250.904 5.04396 250.641 5.10519 250.4 5.22765C250.16 5.34558 249.954 5.52247 249.781 5.75833C249.609 5.99419 249.475 6.2822 249.38 6.62238C249.285 6.96256 249.237 7.35489 249.237 7.79939V8.08514C249.237 8.43439 249.285 8.76323 249.38 9.07166C249.48 9.37555 249.623 9.64315 249.809 9.87447C249.999 10.1058 250.228 10.2872 250.496 10.4188C250.768 10.5503 251.076 10.6161 251.421 10.6161C251.865 10.6161 252.242 10.5253 252.55 10.3439C252.859 10.1625 253.129 9.91983 253.36 9.61594L254.122 10.2215C253.963 10.4618 253.761 10.6909 253.516 10.9086C253.272 11.1263 252.97 11.3032 252.612 11.4393C252.258 11.5754 251.838 11.6434 251.353 11.6434ZM259.973 9.55471C259.973 9.37328 259.932 9.20546 259.851 9.05124C259.773 8.8925 259.612 8.74962 259.368 8.62262C259.127 8.49109 258.764 8.37769 258.279 8.28244C257.871 8.19627 257.501 8.09421 257.17 7.97628C256.843 7.85836 256.564 7.71548 256.333 7.54766C256.106 7.37984 255.932 7.18254 255.809 6.95575C255.687 6.72897 255.626 6.46363 255.626 6.15974C255.626 5.86945 255.689 5.59504 255.816 5.33651C255.948 5.07797 256.131 4.84892 256.367 4.64935C256.608 4.44978 256.896 4.2933 257.231 4.17991C257.567 4.06651 257.941 4.00982 258.354 4.00982C258.943 4.00982 259.447 4.11414 259.864 4.32278C260.281 4.53142 260.601 4.81037 260.823 5.15962C261.046 5.50433 261.157 5.8876 261.157 6.30942H259.898C259.898 6.10531 259.837 5.90801 259.714 5.71751C259.597 5.52247 259.422 5.36146 259.191 5.23446C258.964 5.10746 258.685 5.04396 258.354 5.04396C258.005 5.04396 257.721 5.09839 257.503 5.20724C257.29 5.31156 257.134 5.44537 257.034 5.60865C256.939 5.77194 256.891 5.94429 256.891 6.12572C256.891 6.26179 256.914 6.38426 256.959 6.49311C257.009 6.59743 257.095 6.69495 257.218 6.78566C257.34 6.87184 257.512 6.95349 257.735 7.03059C257.957 7.1077 258.24 7.18481 258.585 7.26191C259.188 7.39798 259.685 7.56127 260.075 7.75177C260.465 7.94227 260.755 8.17586 260.946 8.45253C261.136 8.72921 261.232 9.06485 261.232 9.45946C261.232 9.78149 261.164 10.0763 261.028 10.3439C260.896 10.6115 260.703 10.8428 260.449 11.0379C260.2 11.2284 259.9 11.3781 259.551 11.4869C259.207 11.5912 258.819 11.6434 258.388 11.6434C257.739 11.6434 257.19 11.5277 256.741 11.2964C256.292 11.0651 255.952 10.7657 255.721 10.3983C255.489 10.031 255.374 9.64315 255.374 9.23494H256.639C256.657 9.57965 256.757 9.85406 256.939 10.0582C257.12 10.2577 257.342 10.4006 257.605 10.4868C257.868 10.5684 258.129 10.6093 258.388 10.6093C258.733 10.6093 259.021 10.5639 259.252 10.4732C259.488 10.3825 259.667 10.2577 259.789 10.099C259.912 9.94024 259.973 9.75881 259.973 9.55471Z" fill="#828282"/>
</svg>
